<svg xmlns="http://www.w3.org/2000/svg" xmlns:xlink="http://www.w3.org/1999/xlink" width="457" zoomAndPan="magnify" viewBox="0 0 342.75 107.249998" height="143" preserveAspectRatio="xMidYMid meet" version="1.0"><defs><g/><clipPath id="098a5eadeb"><path d="M 1.066406 0 L 341.4375 0 L 341.4375 106.503906 L 1.066406 106.503906 Z M 1.066406 0 " clip-rule="nonzero"/></clipPath><clipPath id="c2955a1794"><path d="M 18 84 L 101.875 84 L 101.875 106.035156 L 18 106.035156 Z M 18 84 " clip-rule="nonzero"/></clipPath><clipPath id="2be1c813e6"><path d="M 1.066406 0 L 93 0 L 93 106.035156 L 1.066406 106.035156 Z M 1.066406 0 " clip-rule="nonzero"/></clipPath></defs><g clip-path="url(#098a5eadeb)"><path fill="#ffffff" d="M 1.066406 0 L 341.4375 0 L 341.4375 106.503906 L 1.066406 106.503906 Z M 1.066406 0 " fill-opacity="1" fill-rule="nonzero"/></g><g clip-path="url(#c2955a1794)"><path fill="#106dbb" d="M 82.613281 106.304688 L 20.515625 106.304688 C 19.5625 106.304688 18.785156 105.53125 18.785156 104.574219 C 18.785156 103.617188 19.5625 102.84375 20.515625 102.84375 C 29.484375 102.84375 36.511719 95.472656 36.511719 86.0625 C 36.511719 85.105469 37.285156 84.332031 38.242188 84.332031 L 100.339844 84.332031 C 101.296875 84.332031 102.070312 85.105469 102.070312 86.0625 C 102.070312 97.414062 93.523438 106.304688 82.613281 106.304688 Z M 31.539062 102.84375 L 82.609375 102.84375 C 91.019531 102.84375 97.722656 96.359375 98.523438 87.792969 L 39.902344 87.792969 C 39.414062 94.117188 36.242188 99.53125 31.539062 102.84375 Z M 31.539062 102.84375 " fill-opacity="1" fill-rule="nonzero"/></g><g clip-path="url(#2be1c813e6)"><path fill="#106dbb" d="M 20.515625 106.304688 C 9.605469 106.304688 1.058594 97.414062 1.058594 86.0625 L 1.058594 1.761719 C 1.058594 0.808594 1.835938 0.03125 2.789062 0.03125 L 90.328125 0.03125 C 91.28125 0.03125 92.058594 0.808594 92.058594 1.761719 L 92.058594 86.0625 C 92.058594 87.015625 91.28125 87.792969 90.328125 87.792969 C 89.371094 87.792969 88.59375 87.015625 88.59375 86.0625 L 88.59375 3.496094 L 4.523438 3.496094 L 4.523438 86.0625 C 4.523438 95.46875 11.546875 102.84375 20.515625 102.84375 C 21.472656 102.84375 22.25 103.617188 22.25 104.574219 C 22.25 105.53125 21.472656 106.304688 20.515625 106.304688 Z M 20.515625 106.304688 " fill-opacity="1" fill-rule="nonzero"/></g><path fill="#106dbb" d="M 73.792969 70.8125 C 71.066406 70.8125 68.613281 69.191406 67.546875 66.683594 C 67.171875 65.804688 67.578125 64.789062 68.457031 64.410156 C 69.339844 64.039062 70.355469 64.445312 70.730469 65.324219 C 71.253906 66.554688 72.457031 67.347656 73.792969 67.347656 C 75.625 67.347656 77.113281 65.855469 77.113281 64.023438 C 77.113281 62.191406 75.625 60.699219 73.792969 60.699219 C 70.046875 60.699219 67.003906 57.65625 67.003906 53.914062 C 67.003906 50.171875 70.046875 47.128906 73.792969 47.128906 C 76.515625 47.128906 78.96875 48.75 80.035156 51.257812 C 80.410156 52.136719 80.003906 53.152344 79.125 53.527344 C 78.242188 53.902344 77.226562 53.496094 76.851562 52.617188 C 76.328125 51.386719 75.125 50.59375 73.792969 50.59375 C 71.957031 50.59375 70.46875 52.082031 70.46875 53.917969 C 70.46875 55.75 71.957031 57.238281 73.792969 57.238281 C 77.535156 57.238281 80.578125 60.285156 80.578125 64.027344 C 80.578125 67.769531 77.53125 70.8125 73.792969 70.8125 Z M 73.792969 70.8125 " fill-opacity="1" fill-rule="nonzero"/><path fill="#106dbb" d="M 73.792969 50.59375 C 72.835938 50.59375 72.058594 49.816406 72.058594 48.863281 L 72.058594 44.457031 C 72.058594 43.503906 72.835938 42.726562 73.792969 42.726562 C 74.746094 42.726562 75.523438 43.503906 75.523438 44.457031 L 75.523438 48.863281 C 75.523438 49.816406 74.746094 50.59375 73.792969 50.59375 Z M 73.792969 50.59375 " fill-opacity="1" fill-rule="nonzero"/><path fill="#106dbb" d="M 73.792969 75.214844 C 72.835938 75.214844 72.058594 74.441406 72.058594 73.484375 L 72.058594 69.082031 C 72.058594 68.125 72.835938 67.351562 73.792969 67.351562 C 74.746094 67.351562 75.523438 68.125 75.523438 69.082031 L 75.523438 73.484375 C 75.523438 74.441406 74.746094 75.214844 73.792969 75.214844 Z M 73.792969 75.214844 " fill-opacity="1" fill-rule="nonzero"/><path fill="#106dbb" d="M 78.292969 38.234375 L 14.273438 38.234375 C 13.316406 38.234375 12.542969 37.460938 12.542969 36.503906 C 12.542969 35.546875 13.316406 34.773438 14.273438 34.773438 L 78.292969 34.773438 C 79.246094 34.773438 80.023438 35.546875 80.023438 36.503906 C 80.023438 37.460938 79.246094 38.234375 78.292969 38.234375 Z M 78.292969 38.234375 " fill-opacity="1" fill-rule="nonzero"/><path fill="#106dbb" d="M 58.910156 50.5625 L 14.273438 50.5625 C 13.316406 50.5625 12.542969 49.785156 12.542969 48.832031 C 12.542969 47.875 13.316406 47.097656 14.273438 47.097656 L 58.910156 47.097656 C 59.863281 47.097656 60.640625 47.875 60.640625 48.832031 C 60.640625 49.785156 59.867188 50.5625 58.910156 50.5625 Z M 58.910156 50.5625 " fill-opacity="1" fill-rule="nonzero"/><path fill="#106dbb" d="M 58.910156 62.886719 L 14.273438 62.886719 C 13.316406 62.886719 12.542969 62.113281 12.542969 61.15625 C 12.542969 60.199219 13.316406 59.425781 14.273438 59.425781 L 58.910156 59.425781 C 59.863281 59.425781 60.640625 60.199219 60.640625 61.15625 C 60.640625 62.113281 59.867188 62.886719 58.910156 62.886719 Z M 58.910156 62.886719 " fill-opacity="1" fill-rule="nonzero"/><path fill="#106dbb" d="M 58.910156 75.214844 L 14.273438 75.214844 C 13.316406 75.214844 12.542969 74.441406 12.542969 73.484375 C 12.542969 72.527344 13.316406 71.753906 14.273438 71.753906 L 58.910156 71.753906 C 59.863281 71.753906 60.640625 72.527344 60.640625 73.484375 C 60.640625 74.441406 59.867188 75.214844 58.910156 75.214844 Z M 58.910156 75.214844 " fill-opacity="1" fill-rule="nonzero"/><path fill="#106dbb" d="M 78.292969 25.90625 L 14.273438 25.90625 C 13.316406 25.90625 12.542969 25.132812 12.542969 24.175781 L 12.542969 14.339844 C 12.542969 13.386719 13.316406 12.609375 14.273438 12.609375 L 78.292969 12.609375 C 79.246094 12.609375 80.023438 13.386719 80.023438 14.339844 L 80.023438 24.175781 C 80.023438 25.132812 79.246094 25.90625 78.292969 25.90625 Z M 16.003906 22.445312 L 76.558594 22.445312 L 76.558594 16.074219 L 16.003906 16.074219 Z M 16.003906 22.445312 " fill-opacity="1" fill-rule="nonzero"/><g fill="#106dbb" fill-opacity="1"><g transform="translate(102.081415, 42.91092)"><g><path d="M 7.90625 -16.3125 L 7.90625 0 L 1.90625 0 L 1.90625 -26.28125 L 7.90625 -26.28125 L 18.34375 -9.96875 L 18.421875 -9.96875 L 18.421875 -26.28125 L 24.40625 -26.28125 L 24.40625 0 L 18.421875 0 L 7.96875 -16.3125 Z M 7.90625 -16.3125 "/></g></g></g><g fill="#106dbb" fill-opacity="1"><g transform="translate(128.391747, 42.91092)"><g><path d="M 0.734375 -13.15625 C 0.734375 -16.957031 2.023438 -20.175781 4.609375 -22.8125 C 7.203125 -25.445312 10.328125 -26.765625 13.984375 -26.765625 C 17.660156 -26.765625 20.78125 -25.453125 23.34375 -22.828125 C 25.914062 -20.203125 27.203125 -16.976562 27.203125 -13.15625 C 27.203125 -9.3125 25.9375 -6.078125 23.40625 -3.453125 C 20.882812 -0.828125 17.742188 0.484375 13.984375 0.484375 C 10.140625 0.484375 6.96875 -0.816406 4.46875 -3.421875 C 1.976562 -6.023438 0.734375 -9.269531 0.734375 -13.15625 Z M 7.203125 -13.15625 C 7.203125 -11.78125 7.410156 -10.519531 7.828125 -9.375 C 8.253906 -8.238281 9 -7.28125 10.0625 -6.5 C 11.125 -5.71875 12.429688 -5.328125 13.984375 -5.328125 C 16.210938 -5.328125 17.894531 -6.085938 19.03125 -7.609375 C 20.164062 -9.140625 20.734375 -10.988281 20.734375 -13.15625 C 20.734375 -15.300781 20.15625 -17.144531 19 -18.6875 C 17.84375 -20.226562 16.171875 -21 13.984375 -21 C 11.816406 -21 10.144531 -20.226562 8.96875 -18.6875 C 7.789062 -17.144531 7.203125 -15.300781 7.203125 -13.15625 Z M 7.203125 -13.15625 "/></g></g></g><g fill="#106dbb" fill-opacity="1"><g transform="translate(155.307191, 42.91092)"><g><path d="M 0.25 -21.03125 L 0.25 -26.28125 L 18.734375 -26.28125 L 18.734375 -21.03125 L 12.484375 -21.03125 L 12.484375 0 L 6.5 0 L 6.5 -21.03125 Z M 0.25 -21.03125 "/></g></g></g><g fill="#106dbb" fill-opacity="1"><g transform="translate(172.762329, 42.91092)"><g><path d="M 15.265625 -26.28125 L 25.875 0 L 19.4375 0 L 17.484375 -5.25 L 7.484375 -5.25 L 5.546875 0 L -0.890625 0 L 9.71875 -26.28125 Z M 15.453125 -10.515625 L 12.515625 -18.15625 L 12.453125 -18.15625 L 9.53125 -10.515625 Z M 15.453125 -10.515625 "/></g></g></g><g fill="#106dbb" fill-opacity="1"><g transform="translate(197.734843, 42.91092)"><g/></g></g><g fill="#106dbb" fill-opacity="1"><g transform="translate(206.430633, 42.91092)"><g><path d="M 17.109375 -26.28125 L 17.109375 -21.03125 L 7.90625 -21.03125 L 7.90625 -15.796875 L 16.40625 -15.796875 L 16.40625 -10.546875 L 7.90625 -10.546875 L 7.90625 0 L 1.90625 0 L 1.90625 -26.28125 Z M 17.109375 -26.28125 "/></g></g></g><g fill="#106dbb" fill-opacity="1"><g transform="translate(224.49111, 42.91092)"><g><path d="M 7.90625 -26.28125 L 7.90625 0 L 1.90625 0 L 1.90625 -26.28125 Z M 7.90625 -26.28125 "/></g></g></g><g fill="#106dbb" fill-opacity="1"><g transform="translate(233.664637, 42.91092)"><g><path d="M 11.59375 -26.765625 C 13.019531 -26.765625 14.410156 -26.554688 15.765625 -26.140625 C 17.128906 -25.722656 18.140625 -25.3125 18.796875 -24.90625 L 19.75 -24.28125 L 17.328125 -19.5 C 17.140625 -19.625 16.875 -19.785156 16.53125 -19.984375 C 16.195312 -20.191406 15.5625 -20.460938 14.625 -20.796875 C 13.6875 -21.140625 12.816406 -21.3125 12.015625 -21.3125 C 11.015625 -21.3125 10.242188 -21.097656 9.703125 -20.671875 C 9.160156 -20.253906 8.890625 -19.679688 8.890625 -18.953125 C 8.890625 -18.597656 9.015625 -18.265625 9.265625 -17.953125 C 9.523438 -17.640625 9.960938 -17.304688 10.578125 -16.953125 C 11.191406 -16.609375 11.734375 -16.328125 12.203125 -16.109375 C 12.671875 -15.898438 13.394531 -15.585938 14.375 -15.171875 C 16.070312 -14.441406 17.519531 -13.457031 18.71875 -12.21875 C 19.914062 -10.976562 20.515625 -9.570312 20.515625 -8 C 20.515625 -6.488281 20.242188 -5.171875 19.703125 -4.046875 C 19.160156 -2.921875 18.414062 -2.039062 17.46875 -1.40625 C 16.53125 -0.769531 15.484375 -0.296875 14.328125 0.015625 C 13.179688 0.328125 11.941406 0.484375 10.609375 0.484375 C 9.460938 0.484375 8.335938 0.363281 7.234375 0.125 C 6.128906 -0.101562 5.203125 -0.394531 4.453125 -0.75 C 3.710938 -1.101562 3.046875 -1.445312 2.453125 -1.78125 C 1.859375 -2.125 1.421875 -2.410156 1.140625 -2.640625 L 0.734375 -3 L 3.734375 -8.03125 C 3.984375 -7.8125 4.332031 -7.535156 4.78125 -7.203125 C 5.226562 -6.878906 6.019531 -6.441406 7.15625 -5.890625 C 8.289062 -5.335938 9.289062 -5.0625 10.15625 -5.0625 C 12.6875 -5.0625 13.953125 -5.921875 13.953125 -7.640625 C 13.953125 -8.003906 13.859375 -8.335938 13.671875 -8.640625 C 13.492188 -8.953125 13.175781 -9.257812 12.71875 -9.5625 C 12.269531 -9.875 11.867188 -10.117188 11.515625 -10.296875 C 11.160156 -10.484375 10.585938 -10.757812 9.796875 -11.125 C 9.003906 -11.5 8.414062 -11.785156 8.03125 -11.984375 C 6.4375 -12.765625 5.203125 -13.742188 4.328125 -14.921875 C 3.460938 -16.097656 3.03125 -17.367188 3.03125 -18.734375 C 3.03125 -21.085938 3.898438 -23.015625 5.640625 -24.515625 C 7.378906 -26.015625 9.363281 -26.765625 11.59375 -26.765625 Z M 11.59375 -26.765625 "/></g></g></g><g fill="#106dbb" fill-opacity="1"><g transform="translate(254.050285, 42.91092)"><g><path d="M 15.890625 -5.421875 C 16.804688 -5.421875 17.691406 -5.554688 18.546875 -5.828125 C 19.410156 -6.109375 20.046875 -6.375 20.453125 -6.625 L 21.0625 -7.046875 L 23.609375 -1.9375 C 23.523438 -1.875 23.40625 -1.789062 23.25 -1.6875 C 23.101562 -1.582031 22.757812 -1.382812 22.21875 -1.09375 C 21.675781 -0.8125 21.097656 -0.5625 20.484375 -0.34375 C 19.867188 -0.132812 19.0625 0.0507812 18.0625 0.21875 C 17.0625 0.394531 16.03125 0.484375 14.96875 0.484375 C 12.53125 0.484375 10.21875 -0.113281 8.03125 -1.3125 C 5.84375 -2.519531 4.078125 -4.175781 2.734375 -6.28125 C 1.398438 -8.382812 0.734375 -10.65625 0.734375 -13.09375 C 0.734375 -14.9375 1.125 -16.707031 1.90625 -18.40625 C 2.695312 -20.113281 3.742188 -21.570312 5.046875 -22.78125 C 6.359375 -23.988281 7.882812 -24.953125 9.625 -25.671875 C 11.363281 -26.398438 13.144531 -26.765625 14.96875 -26.765625 C 16.664062 -26.765625 18.234375 -26.5625 19.671875 -26.15625 C 21.109375 -25.75 22.125 -25.347656 22.71875 -24.953125 L 23.609375 -24.34375 L 21.0625 -19.25 C 20.914062 -19.375 20.691406 -19.523438 20.390625 -19.703125 C 20.085938 -19.878906 19.488281 -20.117188 18.59375 -20.421875 C 17.707031 -20.722656 16.804688 -20.875 15.890625 -20.875 C 14.453125 -20.875 13.160156 -20.640625 12.015625 -20.171875 C 10.867188 -19.703125 9.957031 -19.082031 9.28125 -18.3125 C 8.613281 -17.550781 8.101562 -16.726562 7.75 -15.84375 C 7.40625 -14.96875 7.234375 -14.070312 7.234375 -13.15625 C 7.234375 -11.15625 7.976562 -9.363281 9.46875 -7.78125 C 10.96875 -6.207031 13.109375 -5.421875 15.890625 -5.421875 Z M 15.890625 -5.421875 "/></g></g></g><g fill="#106dbb" fill-opacity="1"><g transform="translate(278.035366, 42.91092)"><g><path d="M 15.265625 -26.28125 L 25.875 0 L 19.4375 0 L 17.484375 -5.25 L 7.484375 -5.25 L 5.546875 0 L -0.890625 0 L 9.71875 -26.28125 Z M 15.453125 -10.515625 L 12.515625 -18.15625 L 12.453125 -18.15625 L 9.53125 -10.515625 Z M 15.453125 -10.515625 "/></g></g></g><g fill="#106dbb" fill-opacity="1"><g transform="translate(303.007881, 42.91092)"><g><path d="M 7.90625 -26.28125 L 7.90625 -5.25 L 16.953125 -5.25 L 16.953125 0 L 1.90625 0 L 1.90625 -26.28125 Z M 7.90625 -26.28125 "/></g></g></g><g fill="#7aabd4" fill-opacity="1"><g transform="translate(102.081415, 80.59595)"><g><path d="M 11.59375 -26.765625 C 13.019531 -26.765625 14.410156 -26.554688 15.765625 -26.140625 C 17.128906 -25.722656 18.140625 -25.3125 18.796875 -24.90625 L 19.75 -24.28125 L 17.328125 -19.5 C 17.140625 -19.625 16.875 -19.785156 16.53125 -19.984375 C 16.195312 -20.191406 15.5625 -20.460938 14.625 -20.796875 C 13.6875 -21.140625 12.816406 -21.3125 12.015625 -21.3125 C 11.015625 -21.3125 10.242188 -21.097656 9.703125 -20.671875 C 9.160156 -20.253906 8.890625 -19.679688 8.890625 -18.953125 C 8.890625 -18.597656 9.015625 -18.265625 9.265625 -17.953125 C 9.523438 -17.640625 9.960938 -17.304688 10.578125 -16.953125 C 11.191406 -16.609375 11.734375 -16.328125 12.203125 -16.109375 C 12.671875 -15.898438 13.394531 -15.585938 14.375 -15.171875 C 16.070312 -14.441406 17.519531 -13.457031 18.71875 -12.21875 C 19.914062 -10.976562 20.515625 -9.570312 20.515625 -8 C 20.515625 -6.488281 20.242188 -5.171875 19.703125 -4.046875 C 19.160156 -2.921875 18.414062 -2.039062 17.46875 -1.40625 C 16.53125 -0.769531 15.484375 -0.296875 14.328125 0.015625 C 13.179688 0.328125 11.941406 0.484375 10.609375 0.484375 C 9.460938 0.484375 8.335938 0.363281 7.234375 0.125 C 6.128906 -0.101562 5.203125 -0.394531 4.453125 -0.75 C 3.710938 -1.101562 3.046875 -1.445312 2.453125 -1.78125 C 1.859375 -2.125 1.421875 -2.410156 1.140625 -2.640625 L 0.734375 -3 L 3.734375 -8.03125 C 3.984375 -7.8125 4.332031 -7.535156 4.78125 -7.203125 C 5.226562 -6.878906 6.019531 -6.441406 7.15625 -5.890625 C 8.289062 -5.335938 9.289062 -5.0625 10.15625 -5.0625 C 12.6875 -5.0625 13.953125 -5.921875 13.953125 -7.640625 C 13.953125 -8.003906 13.859375 -8.335938 13.671875 -8.640625 C 13.492188 -8.953125 13.175781 -9.257812 12.71875 -9.5625 C 12.269531 -9.875 11.867188 -10.117188 11.515625 -10.296875 C 11.160156 -10.484375 10.585938 -10.757812 9.796875 -11.125 C 9.003906 -11.5 8.414062 -11.785156 8.03125 -11.984375 C 6.4375 -12.765625 5.203125 -13.742188 4.328125 -14.921875 C 3.460938 -16.097656 3.03125 -17.367188 3.03125 -18.734375 C 3.03125 -21.085938 3.898438 -23.015625 5.640625 -24.515625 C 7.378906 -26.015625 9.363281 -26.765625 11.59375 -26.765625 Z M 11.59375 -26.765625 "/></g></g></g><g fill="#7aabd4" fill-opacity="1"><g transform="translate(123.486436, 80.59595)"><g><path d="M 7.90625 -26.28125 L 7.90625 0 L 1.90625 0 L 1.90625 -26.28125 Z M 7.90625 -26.28125 "/></g></g></g><g fill="#7aabd4" fill-opacity="1"><g transform="translate(133.29707, 80.59595)"><g><path d="M 23.640625 0 L 22.390625 -15.578125 L 22.234375 -15.578125 L 16.859375 -0.15625 L 13.28125 -0.15625 L 7.90625 -15.578125 L 7.734375 -15.578125 L 6.5 0 L 0.515625 0 L 2.875 -26.28125 L 9.234375 -26.28125 L 15.0625 -11.125 L 20.90625 -26.28125 L 27.265625 -26.28125 L 29.625 0 Z M 23.640625 0 "/></g></g></g><g fill="#7aabd4" fill-opacity="1"><g transform="translate(163.429728, 80.59595)"><g><path d="M 1.90625 -26.28125 L 11.5 -26.28125 C 14.175781 -26.28125 16.34375 -25.585938 18 -24.203125 C 19.65625 -22.828125 20.484375 -20.820312 20.484375 -18.1875 C 20.484375 -15.550781 19.644531 -13.484375 17.96875 -11.984375 C 16.289062 -10.492188 14.132812 -9.75 11.5 -9.75 L 7.90625 -9.75 L 7.90625 0 L 1.90625 0 Z M 7.90625 -14.53125 L 9.59375 -14.53125 C 10.925781 -14.53125 12.019531 -14.800781 12.875 -15.34375 C 13.738281 -15.882812 14.171875 -16.769531 14.171875 -18 C 14.171875 -19.25 13.738281 -20.144531 12.875 -20.6875 C 12.019531 -21.226562 10.925781 -21.5 9.59375 -21.5 L 7.90625 -21.5 Z M 7.90625 -14.53125 "/></g></g></g><g fill="#7aabd4" fill-opacity="1"><g transform="translate(184.643622, 80.59595)"><g><path d="M 7.90625 -26.28125 L 7.90625 -5.25 L 16.953125 -5.25 L 16.953125 0 L 1.90625 0 L 1.90625 -26.28125 Z M 7.90625 -26.28125 "/></g></g></g><g fill="#7aabd4" fill-opacity="1"><g transform="translate(202.640394, 80.59595)"><g><path d="M 16.953125 -26.28125 L 16.953125 -21.03125 L 7.90625 -21.03125 L 7.90625 -15.796875 L 16.5625 -15.796875 L 16.5625 -10.546875 L 7.90625 -10.546875 L 7.90625 -5.25 L 16.953125 -5.25 L 16.953125 0 L 1.90625 0 L 1.90625 -26.28125 Z M 16.953125 -26.28125 "/></g></g></g><g fill="#7aabd4" fill-opacity="1"><g transform="translate(221.11496, 80.59595)"><g><path d="M 11.59375 -26.765625 C 13.019531 -26.765625 14.410156 -26.554688 15.765625 -26.140625 C 17.128906 -25.722656 18.140625 -25.3125 18.796875 -24.90625 L 19.75 -24.28125 L 17.328125 -19.5 C 17.140625 -19.625 16.875 -19.785156 16.53125 -19.984375 C 16.195312 -20.191406 15.5625 -20.460938 14.625 -20.796875 C 13.6875 -21.140625 12.816406 -21.3125 12.015625 -21.3125 C 11.015625 -21.3125 10.242188 -21.097656 9.703125 -20.671875 C 9.160156 -20.253906 8.890625 -19.679688 8.890625 -18.953125 C 8.890625 -18.597656 9.015625 -18.265625 9.265625 -17.953125 C 9.523438 -17.640625 9.960938 -17.304688 10.578125 -16.953125 C 11.191406 -16.609375 11.734375 -16.328125 12.203125 -16.109375 C 12.671875 -15.898438 13.394531 -15.585938 14.375 -15.171875 C 16.070312 -14.441406 17.519531 -13.457031 18.71875 -12.21875 C 19.914062 -10.976562 20.515625 -9.570312 20.515625 -8 C 20.515625 -6.488281 20.242188 -5.171875 19.703125 -4.046875 C 19.160156 -2.921875 18.414062 -2.039062 17.46875 -1.40625 C 16.53125 -0.769531 15.484375 -0.296875 14.328125 0.015625 C 13.179688 0.328125 11.941406 0.484375 10.609375 0.484375 C 9.460938 0.484375 8.335938 0.363281 7.234375 0.125 C 6.128906 -0.101562 5.203125 -0.394531 4.453125 -0.75 C 3.710938 -1.101562 3.046875 -1.445312 2.453125 -1.78125 C 1.859375 -2.125 1.421875 -2.410156 1.140625 -2.640625 L 0.734375 -3 L 3.734375 -8.03125 C 3.984375 -7.8125 4.332031 -7.535156 4.78125 -7.203125 C 5.226562 -6.878906 6.019531 -6.441406 7.15625 -5.890625 C 8.289062 -5.335938 9.289062 -5.0625 10.15625 -5.0625 C 12.6875 -5.0625 13.953125 -5.921875 13.953125 -7.640625 C 13.953125 -8.003906 13.859375 -8.335938 13.671875 -8.640625 C 13.492188 -8.953125 13.175781 -9.257812 12.71875 -9.5625 C 12.269531 -9.875 11.867188 -10.117188 11.515625 -10.296875 C 11.160156 -10.484375 10.585938 -10.757812 9.796875 -11.125 C 9.003906 -11.5 8.414062 -11.785156 8.03125 -11.984375 C 6.4375 -12.765625 5.203125 -13.742188 4.328125 -14.921875 C 3.460938 -16.097656 3.03125 -17.367188 3.03125 -18.734375 C 3.03125 -21.085938 3.898438 -23.015625 5.640625 -24.515625 C 7.378906 -26.015625 9.363281 -26.765625 11.59375 -26.765625 Z M 11.59375 -26.765625 "/></g></g></g></svg>